<?xml version="1.0" encoding="UTF-8" standalone="no"?>
<!DOCTYPE svg PUBLIC "-//W3C//DTD SVG 1.1//EN" "http://www.w3.org/Graphics/SVG/1.1/DTD/svg11.dtd">
<svg width="100%" height="100%" viewBox="0 0 480 80" version="1.1" xmlns="http://www.w3.org/2000/svg" xmlns:xlink="http://www.w3.org/1999/xlink" xml:space="preserve" xmlns:serif="http://www.serif.com/" style="fill-rule:evenodd;clip-rule:evenodd;stroke-linecap:round;stroke-linejoin:round;stroke-miterlimit:1.5;">
<style>
  @keyframes text-move {
    0% {
      fill: none;
      stroke: #219781;
    }    
    70%{ 
      fill: rgba(0,0,0,0);
      stroke: #219781;
    }
    100%{
      fill: #219781;
      stroke: rgba(0,0,0,0);
    }
  }
  @keyframes symbol-move {
    0% {
      opacity: 0;
    }    
    60% {
      opacity: 0;
    }    

    100%{
      opacity: 1;
    }
  }

  .symbol {
    animation: symbol-move 8s;
  }
  .text {
    animation-name: text-move; 
    animation-delay: 1s;
    animation-duration: 3s;
    animation-timing-function: ease-out;
    fill-rule:nonzero;
    fill: #219781;
  }
  .text.r {
    animation-delay: 1.2s;
  }
  .text.hyphen {
    animation-delay: 1.4s;
  }
  .text.i {
    animation-delay: 1.6s;
  }
  .text.k {
    animation-delay: 1.8s;
  }
  .text.e {
    animation-delay: 2s;
  }
  .text.d {
    animation-delay: 2.2s;
  }
  .text.a {
    animation-delay: 2.4s;
  }
</style>

  <g>
    <!-- 'O' -->
    <path d="M128.533,10.846c8.789,0 16.106,2.78 21.952,8.341c5.846,5.561 8.769,12.533 8.769,20.915c0,8.382 -2.95,15.32 -8.85,20.813c-5.901,5.493 -13.34,8.239 -22.319,8.239c-8.572,0 -15.713,-2.746 -21.423,-8.239c-5.711,-5.493 -8.566,-12.377 -8.566,-20.651c0,-8.49 2.876,-15.516 8.627,-21.077c5.751,-5.561 13.021,-8.341 21.81,-8.341Zm0.325,7.731c-6.51,0 -11.861,2.034 -16.052,6.103c-4.191,4.069 -6.287,9.264 -6.287,15.584c0,6.131 2.103,11.231 6.307,15.3c4.205,4.069 9.467,6.103 15.788,6.103c6.348,0 11.644,-2.075 15.889,-6.225c4.246,-4.15 6.368,-9.318 6.368,-15.503c0,-6.022 -2.122,-11.088 -6.368,-15.198c-4.245,-4.109 -9.46,-6.164 -15.645,-6.164Z" class="text o"/>
    <!-- 'R' -->
    <path d="M169.467,68.503l0,-56.844l14.241,0c5.751,0 10.315,1.424 13.693,4.273c3.377,2.848 5.066,6.7 5.066,11.556c0,3.309 -0.828,6.171 -2.483,8.585c-1.654,2.415 -4.028,4.219 -7.12,5.412c1.817,1.194 3.594,2.821 5.33,4.883c1.736,2.062 4.178,5.656 7.324,10.783c1.981,3.228 3.567,5.656 4.761,7.283l3.011,4.069l-9.684,0l-2.482,-3.743c-0.082,-0.136 -0.244,-0.366 -0.489,-0.692l-1.586,-2.238l-2.523,-4.15l-2.726,-4.435c-1.682,-2.333 -3.222,-4.191 -4.619,-5.575c-1.397,-1.383 -2.658,-2.38 -3.784,-2.991c-1.126,-0.61 -3.018,-0.915 -5.676,-0.915l-2.116,0l0,24.739l-8.138,0Zm10.579,-49.926l-2.441,0l0,17.944l3.092,0c4.124,0 6.952,-0.353 8.484,-1.058c1.533,-0.705 2.726,-1.77 3.581,-3.194c0.854,-1.424 1.282,-3.045 1.282,-4.863c0,-1.79 -0.475,-3.411 -1.424,-4.862c-0.95,-1.451 -2.286,-2.475 -4.008,-3.072c-1.723,-0.597 -4.578,-0.895 -8.566,-0.895Z" class="text r"/>
    <!-- '-' -->
    <rect x="216.627" y="46.083" width="20.264" height="7.935" class="text hyphen"/>
    <!-- 'I' -->
    <rect x="246.575" y="11.659" width="8.138" height="56.844" class="text i"/>
    <!-- 'K' -->
    <path d="M299.472,11.659l10.172,0l-24.658,26.937l30.721,29.907l-11.149,0l-29.012,-28.076l0,28.076l-8.138,0l0,-56.844l8.138,0l0,26.001l23.926,-26.001Z" class="text k"/>
    <!-- 'E' -->
    <path d="M321.973,11.659l32.227,0l0,7.243l-24.089,0l0,17.334l23.275,0l0,7.284l-23.275,0l0,17.659l24.862,0l0,7.243l-33,0l0,-56.763Z" class="text e"/>
    <!-- 'D' -->
    <path d="M363.721,68.422l0,-56.763l19.165,0c7.732,0 13.849,1.16 18.352,3.479c4.503,2.32 8.083,5.731 10.742,10.234c2.658,4.503 3.987,9.413 3.987,14.73c0,3.797 -0.732,7.432 -2.197,10.905c-1.465,3.472 -3.553,6.524 -6.266,9.155c-2.767,2.713 -5.981,4.761 -9.644,6.144c-2.143,0.841 -4.109,1.404 -5.9,1.689c-1.79,0.285 -5.208,0.427 -10.254,0.427l-17.985,0Zm18.311,-49.52l-10.173,0l0,42.277l10.417,0c4.069,0 7.229,-0.278 9.481,-0.834c2.251,-0.556 4.13,-1.261 5.635,-2.116c1.506,-0.854 2.883,-1.905 4.131,-3.153c4.014,-4.069 6.022,-9.21 6.022,-15.422c0,-6.103 -2.062,-11.081 -6.185,-14.933c-1.519,-1.438 -3.262,-2.618 -5.229,-3.54c-1.967,-0.922 -3.832,-1.533 -5.595,-1.831c-1.763,-0.299 -4.598,-0.448 -8.504,-0.448Z" class="text d"/>
    <!-- 'A' -->
    <path d="M439.69,11.334l5.737,0l25.431,57.169l-8.341,0l-7.568,-16.845l-24.17,0l-7.162,16.845l-8.341,0l24.414,-57.169Zm11.922,33.081l-9.155,-20.589l-8.504,20.589l17.659,0Z" class="text a"/>
  </g>

  <g class="symbol"><circle cx="44.575" cy="40" r="35.433" style="fill:#ebebeb;fill-opacity:0;stroke:#219781;stroke-width:3.75px;"/>
    <g>
      <g>
        <rect x="53.886" y="48.811" width="10.63" height="10.163" style="fill:#219781;"/>
        <rect x="53.886" y="34.919" width="10.63" height="10.163" style="fill:#12a58a;"/>
        <rect x="53.886" y="21.749" width="10.63" height="10.163" style="fill:#04b494;"/>
        <rect x="39.26" y="48.811" width="10.63" height="10.163" style="fill:#27b097;"/>
        <rect x="39.26" y="34.919" width="10.63" height="10.163" style="fill:#15c1a1;"/>
        <rect x="39.26" y="21.749" width="10.63" height="10.163" style="fill:#04d2ac;"/>
        <rect x="25.185" y="48.811" width="10.63" height="10.163" style="fill:#2cc9ac;"/>
        <rect x="25.185" y="34.919" width="10.63" height="10.163" style="fill:#18dcb8;"/>
        <rect x="25.185" y="21.749" width="10.63" height="10.163" style="fill:#05f0c5;"/>
      </g>
    </g>
  </g>
</svg>