<?xml version="1.0" encoding="utf-8"?>
<!-- Generator: Adobe Illustrator 25.0.0, SVG Export Plug-In . SVG Version: 6.00 Build 0)  -->
<svg version="1.1" id="レイヤー_1" xmlns:serif="http://www.serif.com/"
	 xmlns="http://www.w3.org/2000/svg" xmlns:xlink="http://www.w3.org/1999/xlink" x="0px" y="0px" viewBox="0 0 595.3 101"
	 style="enable-background:new 0 0 595.3 101;" xml:space="preserve">
<style type="text/css">
	.st0{fill:#219781;}
	
		.st1{fill-rule:evenodd;clip-rule:evenodd;fill:#EBEBEB;fill-opacity:0;stroke:#219781;stroke-width:4.6506;stroke-linecap:round;stroke-linejoin:round;stroke-miterlimit:1.8602;}
	.st2{fill-rule:evenodd;clip-rule:evenodd;fill:#219781;}
	.st3{fill-rule:evenodd;clip-rule:evenodd;fill:#12A58A;}
	.st4{fill-rule:evenodd;clip-rule:evenodd;fill:#04B494;}
	.st5{fill-rule:evenodd;clip-rule:evenodd;fill:#27B097;}
	.st6{fill-rule:evenodd;clip-rule:evenodd;fill:#15C1A1;}
	.st7{fill-rule:evenodd;clip-rule:evenodd;fill:#04D2AC;}
	.st8{fill-rule:evenodd;clip-rule:evenodd;fill:#2CC9AC;}
	.st9{fill-rule:evenodd;clip-rule:evenodd;fill:#18DCB8;}
	.st10{fill-rule:evenodd;clip-rule:evenodd;fill:#05F0C5;}
</style>
<g>
	<path class="st0" d="M159.4,14.1c10.9,0,20,3.4,27.2,10.3c7.2,6.9,10.9,15.5,10.9,25.9s-3.7,19-11,25.8
		c-7.3,6.8-16.5,10.2-27.7,10.2c-10.6,0-19.5-3.4-26.6-10.2c-7.1-6.8-10.6-15.3-10.6-25.6c0-10.5,3.6-19.2,10.7-26.1
		C139.5,17.5,148.5,14.1,159.4,14.1L159.4,14.1z M159.8,23.7c-8.1,0-14.7,2.5-19.9,7.6c-5.2,5-7.8,11.5-7.8,19.3
		c0,7.6,2.6,13.9,7.8,19c5.2,5,11.7,7.6,19.6,7.6c7.9,0,14.4-2.6,19.7-7.7c5.3-5.1,7.9-11.6,7.9-19.2c0-7.5-2.6-13.8-7.9-18.8
		C173.9,26.2,167.5,23.7,159.8,23.7L159.8,23.7z"/>
	<path class="st0" d="M210.2,85.6V15.1h17.7c7.1,0,12.8,1.8,17,5.3c4.2,3.5,6.3,8.3,6.3,14.3c0,4.1-1,7.7-3.1,10.6
		c-2.1,3-5,5.2-8.8,6.7c2.3,1.5,4.5,3.5,6.6,6.1c2.2,2.6,5.2,7,9.1,13.4c2.5,4,4.4,7,5.9,9l3.7,5h-12l-3.1-4.6
		c-0.1-0.2-0.3-0.5-0.6-0.9l-2-2.8l-3.1-5.1l-3.4-5.5c-2.1-2.9-4-5.2-5.7-6.9c-1.7-1.7-3.3-3-4.7-3.7c-1.4-0.8-3.7-1.1-7-1.1h-2.6
		v30.7L210.2,85.6L210.2,85.6z M223.3,23.7h-3v22.3h3.8c5.1,0,8.6-0.4,10.5-1.3c1.9-0.9,3.4-2.2,4.4-4c1.1-1.8,1.6-3.8,1.6-6
		c0-2.2-0.6-4.2-1.8-6c-1.2-1.8-2.8-3.1-5-3.8C231.8,24,228.2,23.7,223.3,23.7z"/>
	<rect x="268.7" y="57.8" class="st0" width="25.1" height="9.8"/>
	<rect x="305.8" y="15.1" class="st0" width="10.1" height="70.5"/>
	<path class="st0" d="M371.4,15.1H384l-30.6,33.4l38.1,37.1h-13.8l-36-34.8v34.8h-10.1V15.1h10.1v32.2L371.4,15.1L371.4,15.1z"/>
	<path class="st0" d="M399.3,15.1h40v9h-29.9v21.5h28.9v9h-28.9v21.9h30.8v9h-40.9C399.3,85.5,399.3,15.1,399.3,15.1z"/>
	<path class="st0" d="M451.1,85.5V15.1h23.8c9.6,0,17.2,1.4,22.8,4.3c5.6,2.9,10,7.1,13.3,12.7c3.3,5.6,4.9,11.7,4.9,18.3
		c0,4.7-0.9,9.2-2.7,13.5c-1.8,4.3-4.4,8.1-7.8,11.4c-3.4,3.4-7.4,5.9-12,7.6c-2.7,1-5.1,1.7-7.3,2.1c-2.2,0.4-6.5,0.5-12.7,0.5
		H451.1z M473.8,24.1h-12.6v52.4h12.9c5,0,9-0.3,11.8-1c2.8-0.7,5.1-1.6,7-2.6c1.9-1.1,3.6-2.4,5.1-3.9c5-5,7.5-11.4,7.5-19.1
		c0-7.6-2.6-13.7-7.7-18.5c-1.9-1.8-4-3.2-6.5-4.4c-2.4-1.1-4.8-1.9-6.9-2.3C482.1,24.3,478.6,24.1,473.8,24.1z"/>
	<path class="st0" d="M545.3,14.7h7.1l31.5,70.9h-10.3l-9.4-20.9h-30l-8.9,20.9H515L545.3,14.7z M560.1,55.7l-11.4-25.5l-10.5,25.5
		H560.1z"/>
</g>
<g>
	<circle class="st1" cx="55.3" cy="50.2" r="43.9"/>
	<g>
		<g>
			<rect x="66.8" y="61.2" class="st2" width="13.2" height="12.6"/>
			<rect x="66.8" y="43.9" class="st3" width="13.2" height="12.6"/>
			<rect x="66.8" y="27.6" class="st4" width="13.2" height="12.6"/>
			<rect x="48.7" y="61.2" class="st5" width="13.2" height="12.6"/>
			<rect x="48.7" y="43.9" class="st6" width="13.2" height="12.6"/>
			<rect x="48.7" y="27.6" class="st7" width="13.2" height="12.6"/>
			<rect x="31.2" y="61.2" class="st8" width="13.2" height="12.6"/>
			<rect x="31.2" y="43.9" class="st9" width="13.2" height="12.6"/>
			<rect x="31.2" y="27.6" class="st10" width="13.2" height="12.6"/>
		</g>
	</g>
</g>
</svg>
