<svg id="layer1" xmlns="http://www.w3.org/2000/svg" width="480" height="80" viewBox="0 0 480 80" type="svg"><defs><style>.cls-1,.cls-3{fill:#219681;}.cls-2{fill:none;stroke:#219681;stroke-linecap:round;stroke-linejoin:round;stroke-width:3.75px;}.cls-10,.cls-11,.cls-3,.cls-4,.cls-5,.cls-6,.cls-7,.cls-8,.cls-9{fill-rule:evenodd;}.cls-4{fill:#12a58a;}.cls-5{fill:#04b494;}.cls-6{fill:#27b096;}.cls-7{fill:#15c1a1;}.cls-8{fill:#04d2ac;}.cls-9{fill:#2cc9ac;}.cls-10{fill:#18dcb8;}.cls-11{fill:#05f0c5;}</style></defs><path class="cls-1" d="M129.5,10.8q13.2,0,21.9,8.4c5.9,5.5,8.8,12.5,8.8,20.9a27.2,27.2,0,0,1-8.9,20.8c-5.9,5.5-13.3,8.3-22.3,8.3s-15.7-2.8-21.4-8.3A27.5,27.5,0,0,1,99,40.3c0-8.5,2.9-15.6,8.7-21.1s13-8.4,21.8-8.4Zm.3,7.8c-6.5,0-11.9,2-16.1,6.1s-6.2,9.2-6.2,15.6a20.5,20.5,0,0,0,6.3,15.3,22,22,0,0,0,15.8,6.1,21.5,21.5,0,0,0,15.8-6.3,20.5,20.5,0,0,0,6.4-15.5,20.3,20.3,0,0,0-6.4-15.2,21.4,21.4,0,0,0-15.6-6.1Z"/><path class="cls-1" d="M170.4,68.5V11.7h14.2c5.8,0,10.4,1.4,13.7,4.2a14.4,14.4,0,0,1,5.1,11.6,14.3,14.3,0,0,1-9.6,14,23.9,23.9,0,0,1,5.3,4.9,84.1,84.1,0,0,1,7.4,10.8,83.6,83.6,0,0,0,4.7,7.2l3,4.1h-9.7l-2.4-3.7-.5-.7L200,61.8l-2.5-4.1-2.8-4.5a40.2,40.2,0,0,0-4.6-5.5,15.4,15.4,0,0,0-3.8-3,12.6,12.6,0,0,0-5.6-.9h-2.2V68.5ZM181,18.6h-2.5V36.5h3.1c4.2,0,7-.3,8.5-1a8,8,0,0,0,3.6-3.2,9.6,9.6,0,0,0-.1-9.8,7.9,7.9,0,0,0-4.1-3c-1.7-.6-4.5-.9-8.5-.9Z"/><polygon class="cls-1" points="217.6 46.1 237.8 46.1 237.8 54 217.6 54 217.6 46.1 217.6 46.1"/><polygon class="cls-1" points="247.5 11.7 255.7 11.7 255.7 68.5 247.5 68.5 247.5 11.7 247.5 11.7"/><polygon class="cls-1" points="300.4 11.7 310.6 11.7 285.9 38.6 316.6 68.5 305.5 68.5 276.5 40.4 276.5 68.5 268.3 68.5 268.3 11.7 276.5 11.7 276.5 37.7 300.4 11.7 300.4 11.7"/><polygon class="cls-1" points="322.9 11.7 355.1 11.7 355.1 18.9 331 18.9 331 36.2 354.3 36.2 354.3 43.5 331 43.5 331 61.2 355.9 61.2 355.9 68.4 322.9 68.4 322.9 11.7 322.9 11.7"/><path class="cls-1" d="M364.7,68.4V11.7h19.1c7.8,0,13.9,1.1,18.4,3.4a26.5,26.5,0,0,1,10.7,10.3,28,28,0,0,1,4,14.7,27.9,27.9,0,0,1-8.5,20.1,26.7,26.7,0,0,1-9.6,6.1,31.6,31.6,0,0,1-5.9,1.7,78.1,78.1,0,0,1-10.3.4ZM383,18.9H372.8V61.2h10.4a39,39,0,0,0,9.5-.9,19.3,19.3,0,0,0,5.6-2.1,20.7,20.7,0,0,0,4.2-3.1,21.1,21.1,0,0,0,6-15.4,19.8,19.8,0,0,0-6.2-15,20.6,20.6,0,0,0-5.2-3.5,20.1,20.1,0,0,0-5.6-1.8,55.3,55.3,0,0,0-8.5-.5Z"/><path class="cls-1" d="M440.6,11.3h5.8l25.4,57.2h-8.3l-7.6-16.8H431.7l-7.1,16.8h-8.4l24.4-57.2Zm11.9,33.1-9.1-20.6-8.5,20.6Z"/><path class="cls-2" d="M45.5,4.6A35.4,35.4,0,1,1,10.1,40,35.3,35.3,0,0,1,45.5,4.6Z"/><polygon class="cls-3" points="65.5 48.8 54.8 48.8 54.8 59 65.5 59 65.5 48.8 65.5 48.8"/><polygon class="cls-4" points="65.5 34.9 54.8 34.9 54.8 45.1 65.5 45.1 65.5 34.9 65.5 34.9"/><polygon class="cls-5" points="65.5 21.7 54.8 21.7 54.8 31.9 65.5 31.9 65.5 21.7 65.5 21.7"/><polygon class="cls-6" points="50.8 48.8 40.2 48.8 40.2 59 50.8 59 50.8 48.8 50.8 48.8"/><polygon class="cls-7" points="50.8 34.9 40.2 34.9 40.2 45.1 50.8 45.1 50.8 34.9 50.8 34.9"/><polygon class="cls-8" points="50.8 21.7 40.2 21.7 40.2 31.9 50.8 31.9 50.8 21.7 50.8 21.7"/><polygon class="cls-9" points="36.8 48.8 26.1 48.8 26.1 59 36.8 59 36.8 48.8 36.8 48.8"/><polygon class="cls-10" points="36.8 34.9 26.1 34.9 26.1 45.1 36.8 45.1 36.8 34.9 36.8 34.9"/><polygon class="cls-11" points="36.8 21.7 26.1 21.7 26.1 31.9 36.8 31.9 36.8 21.7 36.8 21.7"/></svg>